<?xml version="1.0" encoding="utf-8"?>
<!-- Generator: Adobe Illustrator 16.0.0, SVG Export Plug-In . SVG Version: 6.00 Build 0)  -->
<!DOCTYPE svg PUBLIC "-//W3C//DTD SVG 1.1//EN" "http://www.w3.org/Graphics/SVG/1.1/DTD/svg11.dtd">
<svg version="1.1" id="Capa_1" xmlns="http://www.w3.org/2000/svg" xmlns:xlink="http://www.w3.org/1999/xlink" x="0px" y="0px"
	 width="250px" height="250px" viewBox="0 0 250 250" enable-background="new 0 0 250 250" xml:space="preserve">
<g>
	<g>
		<polygon fill="#C2C2C2" points="97.686,186.5 95.935,199.5 139.241,199.5 137.606,186.5 		"/>
		<path fill="#E2E2E2" d="M207.5,182.15c0,2.555-1.724,4.35-4.313,4.35H30.938c-2.588,0-4.438-1.795-4.438-4.35V65.341
			c0-2.555,1.85-4.841,4.438-4.841h172.249c2.589,0,4.313,2.286,4.313,4.841V182.15z"/>
		<path fill="#384047" d="M26.5,169.5V65.341c0-2.555,1.85-4.841,4.438-4.841h172.249c2.589,0,4.313,2.286,4.313,4.841V169.5H26.5z"
			/>
		<rect x="33.5" y="68.5" fill="#00CBFF" width="167" height="95"/>
		<path fill="#ABAAAB" d="M116.794,174.172c-2.253,0-4.08,1.793-4.08,4.008c0,2.213,1.827,4.007,4.08,4.007
			c2.254,0,4.081-1.793,4.081-4.007C120.875,175.965,119.048,174.172,116.794,174.172z M116.799,181.699
			c-1.933,0-3.5-1.568-3.5-3.501c0-1.935,1.568-3.502,3.5-3.502c1.934,0,3.502,1.568,3.502,3.502
			C120.301,180.131,118.733,181.699,116.799,181.699z"/>
	</g>
	<polygon opacity="0.3" fill="#FFFFFF" points="33.5,163.021 33.5,68.5 200.44,68.5 	"/>
	<path fill="#EDEDED" d="M218.5,194.354c0,3.035-2.219,5.146-4.78,5.146h-46.467c-2.561,0-4.753-2.111-4.753-5.146v-64.654
		c0-3.036,2.192-5.199,4.753-5.199h46.467c2.561,0,4.78,2.164,4.78,5.199V194.354z"/>
	<g id="XMLID_53_">
		<g>
			<rect x="167.586" y="130.165" fill="#00CBFF" width="46.783" height="57.731"/>
		</g>
		<g>
		</g>
	</g>
	<g id="XMLID_52_">
		<g>
			<rect x="167.586" y="130.165" fill="#00CBFF" width="46.783" height="57.731"/>
		</g>
		<g>
		</g>
	</g>
	<g>
		<path fill="#E2E2E2" d="M226.615,152.019h-20.126c-1.925,0-3.481,1.562-3.481,3.484v40.866c0,1.921,1.556,3.481,3.481,3.481
			h20.126c1.922,0,3.481-1.561,3.481-3.481v-40.866C230.096,153.581,228.537,152.019,226.615,152.019z"/>
	</g>
	<rect x="205.067" y="158.364" fill="#00CBFF" width="21.87" height="30.897"/>
	<polyline opacity="0.3" fill="#FFFFFF" points="226.938,158.364 205.067,158.364 205.067,189.261 	"/>
	<g>
		<rect x="211.15" y="155.204" fill="#B8B8B8" width="7.688" height="0.837"/>
		<circle fill="#B8B8B8" cx="220.597" cy="155.623" r="0.733"/>
	</g>
	<g id="XMLID_50_" opacity="0.3">
		<g>
		</g>
		<g>
		</g>
	</g>
	<g id="XMLID_54_" opacity="0.3">
		<g>
			<polygon fill="#FFFFFF" points="167.586,130.165 214.369,130.165 167.586,187.896 			"/>
		</g>
		<g>
		</g>
	</g>
	<g>
		<g>
			<g>
				<rect x="185.316" y="126.948" fill="#B8B8B8" width="9.338" height="1.018"/>
			</g>
			<circle fill="#B8B8B8" cx="196.727" cy="127.5" r="0.891"/>
		</g>
	</g>
	<path fill="#ABAAAB" d="M190.263,190.312c-1.486,0-2.69,1.184-2.69,2.645c0,1.459,1.205,2.642,2.69,2.642
		c1.487,0,2.691-1.183,2.691-2.642C192.954,191.495,191.75,190.312,190.263,190.312z M190.266,195.277
		c-1.274,0-2.308-1.035-2.308-2.31c0-1.275,1.034-2.31,2.308-2.31c1.276,0,2.31,1.034,2.31,2.31
		C192.576,194.242,191.542,195.277,190.266,195.277z"/>
	<path fill="#ABAAAB" d="M216.002,192.055c-1.188,0-2.15,0.945-2.15,2.112s0.963,2.113,2.15,2.113c1.189,0,2.152-0.946,2.152-2.113
		S217.191,192.055,216.002,192.055z M216.005,196.022c-1.019,0-1.845-0.826-1.845-1.846s0.826-1.846,1.845-1.846
		c1.02,0,1.846,0.826,1.846,1.846S217.024,196.022,216.005,196.022z"/>
</g>
</svg>
